<?xml version="1.0" encoding="utf-8"?>
<!-- Generator: Adobe Illustrator 19.2.1, SVG Export Plug-In . SVG Version: 6.00 Build 0)  -->
<svg version="1.1" id="Layer_1" xmlns="http://www.w3.org/2000/svg" xmlns:xlink="http://www.w3.org/1999/xlink" x="0px" y="0px"
	 viewBox="0 0 40 40" style="enable-background:new 0 0 40 40;" xml:space="preserve">
<style type="text/css">
	.st0{fill:white;}
</style>
<g>
	<polygon class="st0" points="17,23.9 23.5,20 17,16.2 	"/>
	<path class="st0" d="M20,0C9,0,0,9,0,20c0,11,9,20,20,20c11,0,20-9,20-20C40,9,31,0,20,0z M29,23.6c0,3.4-2.4,3.4-2.4,3.4H13.4
		C10,27,9,23.6,9,23.6v-7.2C9,13,13.4,13,13.4,13h13.1c3.4,0,2.4,3.4,2.4,3.4V23.6z"/>
</g>
</svg>
