<?xml version="1.0" encoding="utf-8"?>
<!-- Generator: Adobe Illustrator 19.2.1, SVG Export Plug-In . SVG Version: 6.00 Build 0)  -->
<svg version="1.1" id="Layer_1" xmlns="http://www.w3.org/2000/svg" xmlns:xlink="http://www.w3.org/1999/xlink" x="0px" y="0px"
	 viewBox="0 0 40 40" style="enable-background:new 0 0 40 40;" xml:space="preserve">
<style type="text/css">
	.st0{fill:white;}
</style>
<g>
	<path class="st0" d="M20,0C9,0,0,9,0,20c0,11,9,20,20,20c11,0,20-9,20-20C40,9,31,0,20,0z M10.3,22.5
		C10.3,22.5,10.3,22.6,10.3,22.5c-0.1,0.1-0.2,0-0.2,0L10,21.4l0.1-1.1c0,0,0-0.1,0.1-0.1c0,0,0.1,0,0.1,0.1l0.2,1.1L10.3,22.5z
		 M11,23.2C11,23.2,11,23.2,11,23.2c-0.1,0.1-0.2,0-0.2,0l-0.2-1.8l0.2-1.8c0,0,0-0.1,0.1-0.1c0,0,0.1,0,0.1,0.1l0.2,1.8L11,23.2z
		 M11.9,23.5C11.8,23.5,11.8,23.6,11.9,23.5c-0.2,0.1-0.2,0.1-0.2,0l-0.2-2.1c0,0,0.2-2.1,0.2-2.1c0-0.1,0-0.1,0.1-0.1
		c0.1,0,0.1,0,0.1,0.1l0.2,2.1L11.9,23.5z M12.7,23.5c0,0.1-0.1,0.1-0.1,0.1c-0.1,0-0.1,0-0.1-0.1l-0.2-2.1l0.2-2.2
		c0-0.1,0.1-0.1,0.1-0.1c0.1,0,0.1,0,0.1,0.1l0.2,2.2L12.7,23.5z M13.5,23.5c0,0.1-0.1,0.1-0.1,0.1c-0.1,0-0.1-0.1-0.1-0.1L13,21.4
		l0.2-2c0-0.1,0.1-0.1,0.1-0.1c0.1,0,0.1,0.1,0.1,0.1l0.2,2L13.5,23.5z M14,23.5L14,23.5c0,0.1,0.1,0.1,0,0.1
		C13.9,23.7,13.9,23.6,14,23.5l-0.2-2.1l0.2-3.3c0-0.1,0.1-0.1,0.2-0.1c0.1,0,0.2,0.1,0.2,0.1l0,3.3L14,23.5z M15,23.5L15,23.5
		c0,0.1,0,0.2-0.1,0.2c-0.1,0-0.1-0.1-0.1-0.2l-0.1-2.1l0.2-4.1c0-0.1,0.1-0.2,0.2-0.2c0.1,0,0.2,0.1,0.2,0.2l0.1,4.1L15,23.5z
		 M16,23.5L16,23.5c0,0.1-0.1,0.2-0.2,0.2c-0.1,0-0.2-0.1-0.2-0.2l-0.1-2.1l0.1-4.4c0-0.1,0.1-0.2,0.2-0.2c0.1,0,0.2,0.1,0.2,0.2
		l0.2,4.4L16,23.5z M17,23.5L17,23.5c0,0.1-0.2,0.2-0.3,0.2c-0.1,0-0.2-0.1-0.3-0.2l-0.2-2.1l0.1-4.5c0-0.1,0.1-0.2,0.2-0.2
		c0.1,0,0.2,0.1,0.2,0.2l0.2,4.5L17,23.5z M18,23.5L18,23.5c0,0.1-0.3,0.2-0.4,0.2c-0.1,0-0.3-0.1-0.3-0.2l-0.2-2.1l0.1-4.4
		c0-0.1,0.1-0.2,0.2-0.2c0.1,0,0.2,0.1,0.2,0.2l0.3,4.4L18,23.5z M19,23.5L19,23.5c0,0.1-0.4,0.2-0.5,0.2c-0.1,0-0.4-0.1-0.4-0.2
		L18,21.4l0.1-4.3c0-0.1,0.1-0.2,0.2-0.2c0.1,0,0.2,0.1,0.2,0.2l0.4,4.3L19,23.5z M20,23.4L20,23.4c0,0.1-0.4,0.3-0.6,0.3
		c-0.1,0-0.4-0.1-0.4-0.3c0,0-0.2-2-0.2-2l0.1-5.1c0-0.1,0.1-0.3,0.2-0.3c0.1,0,0.2,0.1,0.2,0.3l0.4,5.1L20,23.4z M20,23.4L20,23.4
		c0,0.1,0,0.3-0.2,0.3c-0.1,0-0.2-0.1-0.2-0.3l-0.1-2l0.1-5.5c0-0.1,0.1-0.3,0.3-0.3c0.1,0,0.3,0.1,0.3,0.3l0,5.5L20,23.4z
		 M27.5,23.7c0,0-6.5,0-6.5,0c-0.1,0,0-0.1,0-0.3v-7.8c0-0.1-0.2-0.2,0-0.3c0.5-0.2,0.9-0.3,1.4-0.3c2.3,0,4.1,1.7,4.3,4
		c0.3-0.1,0.6-0.2,0.9-0.2c1.4,0,2.4,1.1,2.4,2.5C30,22.6,28.9,23.7,27.5,23.7z"/>
</g>
</svg>
