<?xml version="1.0" encoding="utf-8"?>
<!-- Generator: Adobe Illustrator 19.2.1, SVG Export Plug-In . SVG Version: 6.00 Build 0)  -->
<svg version="1.1" id="Layer_1" xmlns="http://www.w3.org/2000/svg" xmlns:xlink="http://www.w3.org/1999/xlink" x="0px" y="0px"
	 viewBox="0 0 40 40" style="enable-background:new 0 0 40 40;" xml:space="preserve">
<style type="text/css">
	.st0{fill:white;}
</style>
<g>
	<path class="st0" d="M20.1,0c-11,0-20,9-20,20c0,11,9,20,20,20c11,0,20-9,20-20C40.1,9,31.1,0,20.1,0z M13,23.3
		c0.4,0,0.8,0.1,1,0.1c0.1,0,0.1,0.1,0.2,0.1c0.1,0,0.2,0.1,0.3,0.1c0.1,0,0.1,0,0.1-0.1c0-0.1,0-0.2,0-0.4c0-0.1,0-0.1,0-0.2
		c0-0.2,0-0.4,0-0.6c0-0.1,0-0.1,0-0.2c0-0.2,0-0.4,0-0.6c0-0.1,0-0.1,0-0.2c0-0.2,0-0.4,0-0.6c0-0.1,0-0.1,0-0.2c0-0.2,0-0.4,0-0.6
		c0-0.1,0-0.1,0-0.2c0-0.2,0-0.4,0-0.6c0-0.1,0-0.1,0-0.2c0-0.2,0-0.4,0-0.6c0-0.1,0-0.1,0-0.2c0-0.2,0-0.4,0-0.6c0-0.1,0-0.1,0-0.2
		c0-0.2,0-0.4,0-0.6c0-0.1,0-0.1,0-0.2c0-0.2,0-0.4,0-0.6c0-0.1,0-0.1,0-0.2c0-0.2,0-0.4,0-0.6c0-0.1,0-0.1,0-0.2c0-0.2,0-0.4,0-0.6
		c0-0.1,0-0.1,0-0.2c0-0.2,0-0.4,0-0.6c0-0.1,0-0.1,0-0.2c0-0.2,0-0.4,0-0.6c0-0.1,0-0.1,0-0.2c0-0.2,0-0.4,0-0.6c0-0.1,0-0.1,0-0.2
		c0-0.1,0-0.2,0-0.4c0-0.1,0-0.2,0.2-0.2c0.2,0,0.3,0,0.5-0.1c0.1,0,0.1,0,0.2,0c0.2,0,0.4,0,0.7-0.1c0.1,0,0.1,0,0.2,0
		c0.2,0,0.4,0,0.7-0.1c0.1,0,0.1,0,0.2,0c0.2,0,0.5,0,0.7-0.1c0.1,0,0.1,0,0.2,0c0.2,0,0.4,0,0.7-0.1c0.1,0,0.1,0,0.2,0
		c0.2,0,0.4,0,0.7-0.1c0.1,0,0.1,0,0.2,0c0.2,0,0.5,0,0.7-0.1c0.1,0,0.1,0,0.2,0c0.2,0,0.4,0,0.7-0.1c0.1,0,0.1,0,0.2,0
		c0.2,0,0.4,0,0.7-0.1c0.1,0,0.1,0,0.2,0c0.2,0,0.5,0,0.7-0.1c0.1,0,0.1,0,0.2,0c0.4,0,0.9-0.1,1.3-0.1C26,10.3,27,10.2,29,10
		c0,5.2,0,10.4,0,15.6c0,0-0.1,0.1-0.1,0.2c-0.1,0.5-0.4,1-0.8,1.4c-0.4,0.4-0.9,0.7-1.4,1c-0.1,0-0.2,0.1-0.3,0.1
		c-0.2,0.1-0.5,0.1-0.8,0.2c-0.1,0-0.1,0-0.2,0c-0.2,0-0.4,0-0.6,0c-0.1,0-0.1,0-0.2,0c-0.2,0-0.4,0-0.5-0.1c-0.1,0-0.1,0-0.2,0
		c-0.1,0-0.3-0.1-0.4-0.1c-0.1,0-0.1,0-0.2-0.1c-0.1-0.1-0.3-0.1-0.4-0.2c0,0-0.1,0-0.1-0.1c-0.1-0.1-0.2-0.1-0.3-0.2
		c-0.1,0-0.1-0.1-0.2-0.1c-0.1-0.1-0.2-0.2-0.3-0.2c0,0-0.1-0.1-0.1-0.1c-0.1-0.1-0.2-0.2-0.2-0.3c0,0-0.1-0.1-0.1-0.1
		c-0.1-0.1-0.1-0.2-0.2-0.3c0,0,0-0.1-0.1-0.1c-0.1-0.1-0.1-0.3-0.2-0.4c0-0.1,0-0.1,0-0.2c0-0.2-0.1-0.3-0.1-0.5c0-0.1,0-0.1,0-0.2
		c0-0.2,0-0.4,0.1-0.7c0-0.1,0-0.2,0.1-0.2c0.4-1.1,1.2-1.8,2.2-2.2c0.1,0,0.2-0.1,0.3-0.1c0.2-0.1,0.5-0.1,0.7-0.2
		c0.1,0,0.1,0,0.2,0c0.2,0,0.4,0,0.6,0c0.1,0,0.1,0,0.2,0c0.2,0,0.3,0,0.5,0.1c0.1,0,0.1,0,0.2,0c0.2,0.1,0.4,0.1,0.7,0.2
		c0.1,0,0.3,0,0.3-0.1c0-0.3,0.1-0.6,0.1-0.9c0-0.1,0-0.1,0-0.2c0-0.2,0-0.4,0-0.6c0-0.1,0-0.1,0-0.2c0-0.2,0-0.4,0-0.6
		c0-0.1,0-0.1,0-0.2c0-0.2,0-0.4,0-0.6c0-0.1,0-0.1,0-0.2c0-0.2,0-0.4,0-0.6c0-0.1,0-0.1,0-0.2c0-0.2,0-0.4,0-0.6c0-0.1,0-0.1,0-0.2
		c0-0.2,0-0.4,0-0.6c0-0.1,0-0.1,0-0.2c0-0.2,0-0.4,0-0.6c0-0.1,0-0.1,0-0.2c0-0.2,0-0.4,0-0.6c0-0.1,0-0.1,0-0.2c0-0.2,0-0.4,0-0.6
		c0-0.1-0.1-0.1-0.2-0.2c-0.2,0-0.5,0-0.8,0.1c-0.1,0-0.2,0-0.2,0c-0.2,0-0.5,0-0.7,0.1c-0.1,0-0.1,0-0.2,0c-0.2,0-0.4,0-0.7,0.1
		c-0.1,0-0.1,0-0.2,0c-0.2,0-0.5,0-0.7,0.1c-0.1,0-0.1,0-0.2,0c-0.2,0-0.5,0-0.7,0.1c-0.1,0-0.1,0-0.2,0c-0.2,0-0.4,0-0.7,0.1
		c-0.1,0-0.1,0-0.2,0c-0.2,0-0.4,0-0.7,0.1c-0.1,0-0.1,0-0.2,0c-0.2,0-0.5,0-0.7,0.1c-0.1,0-0.1,0-0.2,0c-0.2,0-0.4,0-0.7,0.1
		c-0.1,0-0.1,0-0.2,0c-0.2,0-0.4,0-0.7,0.1c-0.1,0-0.1,0-0.2,0c-0.2,0-0.4,0-0.7,0.1c0,0-0.1,0-0.1,0c-0.5,0-0.5,0-0.4,0.6
		c0,0.2,0,0.4,0,0.6c0,0.1,0,0.1,0,0.2c0,0.2,0,0.4,0,0.6c0,0.1,0,0.1,0,0.2c0,0.2,0,0.4,0,0.6c0,0.1,0,0.1,0,0.2c0,0.2,0,0.4,0,0.6
		c0,0.1,0,0.1,0,0.2c0,0.2,0,0.4,0,0.6c0,0.1,0,0.1,0,0.2c0,0.2,0,0.4,0,0.6c0,0.1,0,0.1,0,0.2c0,0.2,0,0.4,0,0.6c0,0.1,0,0.1,0,0.2
		c0,0.2,0,0.4,0,0.6c0,0.1,0,0.1,0,0.2c0,0.2,0,0.4,0,0.6c0,0.1,0,0.1,0,0.2c0,0.2,0,0.4,0,0.6c0,0.1,0,0.1,0,0.2c0,0.2,0,0.4,0,0.6
		c0,0.1,0,0.1,0,0.2c0,0.2,0,0.4,0,0.6c0,0.1,0,0.1,0,0.2c0,0.2,0,0.4,0,0.6c0,0.1,0,0.1,0,0.2c0,0.2,0,0.4,0,0.6c0,0.1,0,0.1,0,0.2
		c0,0.2,0,0.4,0,0.6c0,0.1,0,0.1,0,0.2c-0.1,0.3-0.2,0.6-0.3,0.9c-0.3,0.5-0.7,0.9-1.3,1.3c-0.4,0.2-0.9,0.2-1.3,0.3
		c-0.1,0-0.8,0.1-0.9,0.1c-0.4,0,0.2,0-0.2,0c-0.2,0-0.4,0-0.4,0c-0.6-0.1-1.1-0.1-1.7-0.4c0,0-0.1,0-0.1,0
		c-0.1-0.1-0.2-0.1-0.3-0.2c0,0-0.1-0.1-0.1-0.1c-0.1-0.1-0.2-0.2-0.3-0.2c0,0-0.1-0.1-0.1-0.1c0,0-0.1-0.1-0.1-0.1
		c-0.9-1.2-0.9-2.6,0.1-3.8c0.3-0.3,0.6-0.6,0.9-0.8c0.1-0.1,0.3-0.1,0.4-0.2c0.3-0.1,0.6-0.2,0.9-0.3L13,23.3z"/>
</g>
</svg>
